<?xml version="1.0" encoding="UTF-8"?>
<svg id="Layer_1" data-name="Layer 1" class="color" xmlns="http://www.w3.org/2000/svg" viewBox="0 0 99 32">
  <defs>
    <style>
      .cls-1 {
        isolation: isolate;
        opacity: .5;
      }
    </style>
  </defs>
  <path
     class="cls-1"
     d="M99,21.8l-6.32-4.12,5.51-11.23-11.2,8.11c-.77-1.59-1.61-2.27-2.83-2.53-1.6-.35-2.77.39-2.77.39,0,0-1.77-2.48-4.44-2-3.17.57-3.09,4.17-3.09,4.17,0,0,1.71-1.9,4.05-1.22,1.43.42,1.9,2.34,1.9,2.34,0,0,1.42-.85,3.04-.19,1.5.61,1.9,2.75,1.9,2.75l4.13-1.66-1.94,3.36,5.02,1.7-5.28,1,2.14,3.46-3.96-.28,4.56,6.19v-3.92l8.35.97-4.18-5.33,5.41-1.93h.01Z"
     id="path1" />
  <g
     id="g4"
     style="display:inline">
    <path
       d="m 73.29,24.26 -0.75,0.66 -0.17,-0.19 -1.28,1.12 c -0.55,0.48 3.62,5.22 4.17,4.74 l 1.28,-1.12 -0.17,-0.19 0.75,-0.66 C 75.8,27.2 74.52,25.76 73.29,24.26 Z"
       id="path2" />
    <path
       d="m 78.22,19.95 c -0.27,-0.31 -0.66,-0.38 -0.9,-0.19 l -2.86,2.51 c -0.22,0.2 -0.2,0.6 0.07,0.91 1.21,1.5 2.48,2.93 3.79,4.3 0.27,0.31 0.66,0.38 0.9,0.19 l 2.86,-2.51 c 0.22,-0.2 0.2,-0.6 -0.07,-0.91 -1.14,-1.51 -2.41,-2.94 -3.79,-4.3 z"
       id="path3" />
    <path
       d="m 80.84,18.35 c -0.55,0 -1.1,0.12 -1.63,0.35 1.57,1.42 2.96,3 4.17,4.74 0.3,-0.49 0.5,-1.03 0.56,-1.56 0.11,-0.89 -0.13,-1.79 -0.75,-2.48 -0.6,-0.69 -1.46,-1.04 -2.36,-1.05 v 0 z"
       id="path4" />
  </g>
  <g
     id="g9"
     style="display:inline"
     transform="translate(5.0381356,1.5026019)">
    <path
       id="path12-6"
       style="display:inline"
       d="M 22.807568 13.222007 C 22.065612 13.213897 21.281389 13.220564 21.118114 13.282554 C 20.588473 13.483638 19.840771 13.970054 19.840771 13.970054 C 19.840771 13.970054 15.981396 16.235679 15.059521 16.860679 C 14.137646 17.485679 13.520458 17.774729 13.012646 17.766929 C 12.504833 17.759116 12.247021 17.509117 11.372021 16.696617 C 10.497021 15.88412 9.9032706 15.798179 9.9032706 15.798179 C 9.9032706 15.798179 1.6689937 14.97982 -1.2920419 14.97982 C -4.160545 14.97982 -4.007499 15.659994 -3.9951669 15.702476 L -3.9951669 15.704429 C -3.9951669 15.704429 -3.386024 25.113455 -2.4092294 25.360679 C -2.4092294 25.360679 8.8969036 23.492649 9.3251456 23.548179 C 10.537403 23.705379 10.875986 25.360502 12.457958 25.456382 C 13.14879 25.49825 13.872021 24.641929 13.872021 24.641929 C 13.872021 24.641929 15.569429 22.338568 16.075146 21.501304 C 16.566603 20.687649 17.135122 20.030052 17.938427 19.626304 C 18.038978 19.575767 18.156313 19.533965 18.282177 19.499351 C 18.307666 19.496344 18.34058 19.490009 18.379833 19.47982 C 18.521219 19.44312 18.594173 19.719826 18.629833 19.870445 C 18.658023 19.98951 18.654733 22.07292 18.692333 22.290367 C 18.748863 22.617257 18.858452 22.854008 19.075146 23.07357 C 19.309579 23.311106 19.651243 23.469162 19.979443 23.507164 C 20.71454 23.592274 21.493984 23.651395 22.241161 23.501304 C 22.790712 23.390901 23.307213 23.111016 23.795849 22.837242 C 23.951998 22.749752 24.089822 22.674772 24.207958 22.548179 C 24.291178 22.458999 24.318967 22.351599 24.362255 22.235679 C 24.468439 21.951332 24.116542 20.130707 23.995068 19.524742 C 23.977524 19.437228 24.027742 19.392498 24.081005 19.368492 C 24.103201 19.362917 24.12272 19.355682 24.143505 19.348961 C 24.154774 19.346148 24.16238 19.343897 24.170849 19.341148 C 24.173673 19.340133 24.177819 19.338281 24.180614 19.337242 C 24.185725 19.335376 24.19042 19.333218 24.194286 19.331382 L 24.196239 19.329429 C 24.198976 19.328031 24.202018 19.326904 24.204052 19.325523 C 24.275668 19.295912 24.339868 19.261213 24.389599 19.212242 C 24.624115 18.981305 24.52814 13.675793 24.245068 13.440757 L 24.243114 13.438804 C 23.910194 13.210521 23.549523 13.230107 22.807568 13.222007 z M 19.581005 19.333336 C 19.581005 19.333336 19.681082 19.333103 19.852489 19.333336 C 19.857773 19.333836 19.862185 19.334722 19.868114 19.335289 C 20.025647 19.350349 19.981396 19.985679 19.981396 19.985679 C 19.981396 19.985679 19.945627 20.572265 19.938427 20.864586 C 19.932527 21.104152 19.941318 21.317524 19.989208 21.579429 C 20.093232 22.14796 20.120376 22.172676 20.231396 22.360679 C 20.285876 22.452939 20.624951 22.873216 20.731396 22.876304 C 20.818506 22.878804 20.894193 22.774053 20.883739 22.731773 C 20.875739 22.699443 20.814356 22.637757 20.719677 22.501304 C 20.624997 22.364857 20.541466 22.274915 20.504833 22.173179 C 20.399545 21.880776 20.404218 21.552792 20.434521 21.243492 C 20.459381 20.989764 20.553423 20.719164 20.682568 20.499351 C 20.854655 20.206449 21.10823 19.995125 21.364208 19.790367 C 21.581455 19.61659 21.818835 19.36306 22.094677 19.343101 C 22.200188 19.346448 22.304516 19.351064 22.407177 19.356773 C 22.640704 19.423793 22.881913 19.611524 23.079052 19.817711 C 23.422857 20.177297 23.64078 20.647317 23.789989 21.118492 C 23.888459 21.429449 24.028911 21.791801 23.899364 22.091148 C 23.684051 22.588673 23.110114 22.889949 22.59663 23.063804 C 21.73495 23.355552 20.746884 23.332319 19.868114 23.097007 C 19.624068 23.031657 19.378117 22.903869 19.215771 22.710289 C 19.041272 22.502217 19.048909 22.214575 19.004833 21.946617 C 18.882819 21.204842 18.897144 20.401059 19.075146 19.700523 C 19.099516 19.604613 19.286654 19.371279 19.401318 19.352867 C 19.444785 19.345888 19.469661 19.341215 19.479443 19.337242 L 19.481396 19.337242 C 19.544089 19.334801 19.581005 19.333336 19.581005 19.333336 z " />
    <path
       style="display:inline;stroke-width:0.993786"
       d="m 66.398823,12.423261 c -18.517707,-0.15625 -41.252586,-0.05138 -41.252586,-0.05138 0,0 -0.351208,0.637364 -0.306431,2.900688 0.04881,2.466942 0.249095,2.900689 0.249095,2.900689 l 41.165178,-0.111377 c 0,0 0.865924,-0.377104 0.85801,-2.819312 -0.0087,-2.686804 -0.713271,-2.819311 -0.713271,-2.819311 z"
       id="path10-2"
       sodipodi:nodetypes="ccsccscc" />
    <path
       style="display:inline;stroke-width:0.993786"
       d="m 41.600073,22.798261 c 0,-2.375 0.0077,-2.390625 0.0077,-2.390625 l 2.615626,-0.01563 -5e-6,-2 h 17.653547 c 0,0 -0.128147,1.278417 -0.401217,1.84375 -0.311347,0.644578 -0.785751,1.232965 -1.357965,1.65625 -0.492763,0.364513 -1.102645,0.556291 -1.697456,0.694432 -1.165771,0.270742 -3.58009,0.243068 -3.58009,0.243068 h -3.58009 z"
       id="path11-3"
       sodipodi:nodetypes="cccccaaaccc" />
    <path
       style="display:inline;stroke-width:1.12904"
       d="m 61.86694,12.215445 c 0.332096,-0.550446 0.333318,-0.54788 0.333318,-0.54788 l 3.968191,-0.713839 -0.117589,1.257079 z"
       id="path15-2"
       sodipodi:nodetypes="ccccc" />
    <path
       style="display:inline"
       d="M 53.66217,11.026872 C 54.656539,4.088388 54.656539,4.088388 54.656539,4.088388 L 55.341549,4 54.325083,11.071067 Z"
       id="path16-2" />
    <path
       style="display:inline"
       d="m 53.356716,12.215032 c -0.07003,-0.205795 0.0086,-0.566395 0.0086,-0.566395 0,0 0.01157,-0.191655 0.190321,-0.368154 0.09869,-0.09744 0.412148,-0.07165 0.412148,-0.07165 0,0 0.286578,-0.01704 0.380897,0.08463 0.21114,0.227611 0.181908,0.375536 0.181908,0.375536 l 0.01752,0.542718 -0.595697,0.0017 z"
       id="path17-1"
       sodipodi:nodetypes="ccscscccc" />
    <path
       id="path20-6"
       style="display:inline;fill-opacity:1;fill-rule:nonzero"
       d="m 25.007636,18.433027 v 1.076172 h 2.164062 v 0.03125 l 0.0039,5.376953 c 1.090413,0.116502 1.920266,1.044186 1.91211,2.003906 -5.8e-5,0.71795 -0.17481,1.111868 -0.494141,1.490234 -0.146543,0.164965 -0.282494,0.320995 -0.492187,0.4375 v 0.19336 c 0,0 1.267356,0.09796 1.876953,-0.09961 0.726346,-0.235409 1.412712,-0.57571 1.90039,-1.24414 0.562675,-0.771224 0.848048,-1.821078 0.972657,-2.767579 0.1394,-1.058889 0.1875,-2.609375 0.1875,-2.609374 h 8.1875 v -2.285157 h 2.634765 V 18.43498 H 27.191229 v -0.002 z m 17.972656,0.53125 c 0.166296,-4.33e-4 0.301214,0.134485 0.300781,0.300781 -6.46e-4,0.165533 -0.135248,0.29926 -0.300781,0.298828 -0.164771,-6.42e-4 -0.298186,-0.134057 -0.298828,-0.298828 -4.32e-4,-0.165533 0.133295,-0.300135 0.298828,-0.300781 z"
       sodipodi:nodetypes="cccccccccsssccccccccccccc" />
    <path
       id="path21-8"
       style="display:inline;fill-opacity:1;fill-rule:nonzero;stroke-width:0.966838"
       d="m 25.005682,19.694514 v 7.416247 l 0.002,0.0039 c 0.01239,1.064804 0.873003,1.917608 1.925781,1.917969 1.061764,-4.39e-4 1.922178,-0.871346 1.921875,-1.945313 -6.99e-4,-1.06554 -0.848969,-1.9321 -1.902344,-1.943359 v -5.44945 z m 1.9375,6.877185 c 0.276142,0 0.5,0.223858 0.5,0.5 0,0.276142 -0.223858,0.5 -0.5,0.5 -0.276142,0 -0.5,-0.223858 -0.5,-0.5 0,-0.276142 0.223858,-0.5 0.5,-0.5 z"
       sodipodi:nodetypes="ccccccccsssss" />
    <path
       style="display:inline;fill-opacity:1;fill-rule:nonzero"
       d="m 21.43537,12.337323 h 3.00241 l -0.246093,0.707032 c 0,0 -3.002753,0.01598 -3.143036,0.0625 -0.409513,0.135786 -1.147721,0.389151 -1.222656,0.484375 -0.133255,0.169334 -0.282476,0.31661 -0.480469,0.414062 -0.233034,0.114699 -0.570329,0.01564 -0.742188,-0.203125 -0.171858,-0.218765 -0.13808,-0.631367 -0.01563,-0.898437 0.08227,-0.17944 0.269106,-0.248499 0.445313,-0.285156 0.173765,-0.03615 0.324629,0.02248 0.472656,0.101562 0.06661,0.03559 0.126685,0.107217 0.203125,0.121094 0.11584,0.02103 0.640415,-0.0956 0.945313,-0.199219 0.136751,-0.04647 0.332064,-0.122647 0.49319,-0.1872 0.161127,-0.06455 0.288065,-0.117488 0.288065,-0.117488 z"
       id="path22-5"
       sodipodi:nodetypes="cccssszssssssc" />
    <path
       id="path23-7"
       style="display:inline;fill-opacity:1;fill-rule:nonzero;stroke-width:1.51975"
       d="m 26.228339,11.044355 c -0.898622,-0.02534 -1.797636,-0.01166 -2.697266,0.03906 -0.49707,0.02803 -1.374138,0.131851 -1.492187,0.212891 -0.169526,0.116373 -0.47461,0.699219 -0.47461,0.699219 l -0.107422,0.185546 15.017578,-0.002 c 0,0 -0.448585,-0.418309 -0.734374,-0.458984 -0.217906,-0.03101 -6.334209,-0.586181 -9.511719,-0.675781 z"
       sodipodi:nodetypes="ssscccss" />
  </g>
</svg>
