<?xml version="1.0" encoding="UTF-8"?>
<svg id="Layer_1" data-name="Layer 1" class="color" xmlns="http://www.w3.org/2000/svg" viewBox="0 0 71 32">
  <defs>
    <style>
      .cls-1 {
        opacity: .5;
      }
    </style></defs><g
     id="g5"
     style="display:inline"
     inkscape:label="g5"
     transform="translate(3.327967,3.7484621)"><path
       style="display:inline;stroke:#000000;stroke-width:0"
       d="m 49.824938,7.2403049 c 0,0 0.551233,-0.09894 0.551233,-2.3533395 0,-2.2826689 -0.551233,-2.3533396 -0.551233,-2.3533396 H 26.609445 v 4.6784111 z"
       id="path7-2"
       sodipodi:nodetypes="cscccc" /><path
       id="path8-3"
       style="display:inline;stroke:#000000;stroke-width:0"
       d="m 17.418764,3.9607158 v 7.5195312 l 2.31836,0.002 c -1.5e-5,-0.0027 0,-0.0051 0,-0.0078 0,-0.815533 0.65517,-1.470703 1.470703,-1.470703 h 4.164063 c 0.113369,0 0.22417,0.01312 0.330078,0.03711 V 5.448997 C 25.597849,5.472139 25.489034,5.484153 25.377749,5.484153 H 21.21564 c -0.815534,0 -1.472657,-0.6551701 -1.472657,-1.4707032 0,-0.017344 -5.89e-4,-0.035538 0,-0.052734 z" /><circle
       style="display:inline;stroke:#000000;stroke-width:0"
       id="path9-2"
       cx="12.811515"
       cy="5.943253"
       r="1.25" /><path
       style="display:inline;stroke:#000000;stroke-width:0"
       d="m 12.550686,4.807637 c 0,0 0.524246,-0.5658418 0.704005,-0.9023258 C 13.388991,3.6539213 13.416227,3.4869055 13.43245,3.202353 13.44502,2.9818195 13.41468,2.7408786 13.29765,2.5535328 13.151378,2.3193668 12.896182,2.156005 12.642786,2.0463736 12.433113,1.9556586 12.194315,1.9333559 11.965923,1.9387413 c -0.324,0.00764 -0.537669,0.091507 -0.861748,0.088763 C 10.881683,2.0256243 10.635534,2.0079413 10.453023,1.880677 10.294259,1.7699707 10.016207,1.5360814 9.9550627,0.9292806 c -0.06409,-0.6360273 0.1168143,-1.0776289 0.4641933,-1.3403609 0.567856,-0.4294848 3.053082,-0.766506 3.459633,-0.4436932 0.779414,0.6188756 0.429558,0.6559205 0.429558,0.6559205 l -1.553628,0.055811 c 0,0 -1.506884,0.085213 -1.772196,0.6733838 -0.06427,0.1424884 0.01598,0.5172536 0.146562,0.6169323 0.260867,0.1991319 0.416329,0.083348 0.902034,0.027815 0.191053,-0.021844 0.388213,-0.024204 0.576727,0.013751 0.294212,0.059236 0.610864,0.1685112 0.869515,0.3207259 0.414123,0.243709 0.569999,0.4525206 0.871716,0.9819021 0.166315,0.2918101 0.204094,0.4369199 0.269397,0.631034 0.08433,0.2506742 0.115945,0.513094 0.116955,0.7775692 0.0011,0.2801905 -0.04886,0.5585512 -0.154418,0.8181014 -0.174258,0.4284854 -0.714333,1.1897141 -0.714333,1.1897141 z"
       id="path10-2"
       sodipodi:nodetypes="cssssssssssccssssssssscc" /><circle
       style="display:inline;stroke:#000000;stroke-width:0"
       id="path11-1"
       cx="10.58477"
       cy="-1.8860615"
       r="0.5" /><path
       style="display:inline;stroke:#000000;stroke-width:0"
       d="m 15.499801,10.269771 0.01967,-7.7377851 h 11.170954 v 0.90625 H 16.683764 l -0.0472,6.8276291 z"
       id="path13-6"
       sodipodi:nodetypes="ccccccc" /><path
       style="display:inline;stroke:#000000;stroke-width:0"
       d="m 17.921983,2.1032939 c 0,0 0.463254,-0.8008849 0.526861,-1.2233265 0.06918,-0.4594515 0.09843,-1.2012058 -0.111676,-1.9640388 -0.194195,-0.7050613 -0.790568,-1.6251347 -0.790568,-1.6251347 0,0 -0.08818,-0.1324636 0.03014,-0.2309624 0.173637,-0.1445498 0.350154,0.018251 0.350154,0.018251 0,0 0.448128,0.5360065 0.626847,0.8617863 0.207769,0.378734 0.412921,0.7734055 0.507874,1.1821943 0.126162,0.5431506 0.163715,1.106147 0.106174,1.6572814 -0.04687,0.4489499 -0.364968,1.3173425 -0.364968,1.3173425 z"
       id="path14-8"
       sodipodi:nodetypes="csscscssscc" /><path
       style="display:inline;stroke:#000000;stroke-width:0"
       d="m 0.8538137,24.806419 c -0.3687523,-0.468961 -0.6405223,-1.038555 -0.75,-1.625 -0.2719868,-1.456965 0.0504547,-2.973445 0.28125,-4.4375 0.1774289,-1.125524 0.4287277,-2.251349 0.84375,-3.3125 0.6773815,-1.731966 1.6418491,-3.347551 2.65625,-4.90625 0.8830512,-1.3568701 1.8271849,-2.6958361 2.96875,-3.8437501 0.59655,-0.5998671 1.262651,-1.1477366 2,-1.5625 1.100978,-0.6193072 3.5445753,-1.3406092 3.5445753,-1.3406092 0,0 -1.171905,0.7062778 -1.382773,1.725682 -0.209586,1.0132042 0.09395,1.6634412 0.848327,2.0989772 1.018978,0.588307 2.217774,-0.106234 2.217774,-0.106234 l 0.0221,2.7159341 c 0,0 -1.191375,0.403364 -1.75,0.6875 -0.484229,0.246295 -0.973488,0.50904 -1.375,0.875 -0.7792,0.710206 -1.3536653,1.622115 -1.9375003,2.5 -0.914396,1.374934 -1.805601,2.786962 -2.4375,4.3125 -0.2234099,0.539359 -0.3961259,1.108237 -0.46875,1.6875 -0.1205397,0.961447 0.2658743,1.958859 0.0625,2.90625 -0.1017048,0.473778 -0.2814487,0.970767 -0.625,1.3125 -0.5385132,0.535663 -1.3242446,0.790115 -2.0625,0.96875 -0.5673331,0.137277 -1.1954527,0.244679 -1.75,0.0625 -0.3662983,-0.120336 -0.6679338,-0.415667 -0.906253,-0.71875 z"
       id="path15-5"
       sodipodi:nodetypes="ssssssscssccssssssssss" /><path
       style="display:inline;stroke:#000000;stroke-width:0"
       d="m 8.7746727,17.016291 1.005346,-1.025083 c 0,0 0.4900703,-0.462366 0.9030043,-0.55481 0.630541,-0.141158 0.758596,0.233375 1.341005,0.616383 0.412041,0.270968 0.482732,0.326415 1.193843,0.495027 0.778454,0.184579 1.75256,0.0517 2.316557,-0.395622 1.213116,-0.936602 1.019106,-1.819409 1.022429,-3.297563 l 0.0042,-1.914681 -0.778664,-0.0014 v 1.598379 1.598381 c 0,0 -0.0096,1.011985 -0.907528,1.387689 -0.302444,0.126543 -1.0994,0.246995 -1.626396,0.07758 -0.526996,-0.169408 -0.767765,-0.346854 -1.087647,-0.627591 -0.60148,-0.515925 -1.099901,-0.569158 -1.674956,-0.499357 -0.381058,0.04626 -1.0171353,0.589081 -1.0171353,0.589081 l -1.488836,1.37315 z"
       id="path16-7"
       sodipodi:nodetypes="ccsssscccccssssccc" /><path
       style="display:inline;stroke:#000000;stroke-width:0"
       d="m 11.653405,11.957858 c 0,0 -0.02541,-0.234898 0.577028,-0.582716 0.803408,-0.463848 1.173649,-0.428037 1.173649,-0.428037 0,0 -0.274653,0.432072 -0.369609,0.668249 -0.139293,0.346452 -0.24537,0.711709 -0.287263,1.082757 -0.02398,0.212383 -0.0382,0.435767 0.0221,0.640815 0.06291,0.213899 0.200435,0.402694 0.342505,0.574525 0.169551,0.205069 0.596622,0.53033 0.596622,0.53033 l -0.135529,0.156602 c 0,0 -0.430855,-0.166611 -0.625,-0.289063 -0.167379,-0.10557 -0.324579,-0.231878 -0.457031,-0.378906 -0.135118,-0.149987 -0.249781,-0.321341 -0.335938,-0.503906 -0.08825,-0.187003 -0.159742,-0.387933 -0.179687,-0.59375 -0.01832,-0.189058 0.08839,-0.31645 -0.01563,-0.5625 -0.05697,-0.134746 -0.306217,-0.3144 -0.306217,-0.3144 z"
       id="path17-6"
       sodipodi:nodetypes="cscssssccsssssc" /><path
       style="display:inline;stroke:#000000;stroke-width:0"
       d="M 26.572564,10.025169 V 8.4626689 l 1.230859,0.181371 v 1.205348 z"
       id="path18-1"
       sodipodi:nodetypes="ccccc" /><path
       style="display:inline;stroke:#000000;stroke-width:0"
       d="m 49.807716,9.9910479 v -1.5625 l -1.230859,0.181371 v 1.205348 z"
       id="path18-4-8"
       sodipodi:nodetypes="ccccc" /><rect
       style="display:inline;stroke:#000000;stroke-width:0"
       id="rect18-9"
       width="8.7559433"
       height="0.82498449"
       x="27.610468"
       y="8.8250141"
       ry="0"
       rx="0" /><rect
       style="display:inline;stroke:#000000;stroke-width:0"
       id="rect18-15-2"
       width="7.7528024"
       height="0.82498449"
       x="41.013203"
       y="8.8251696"
       ry="0"
       rx="0" /><rect
       style="display:inline;stroke:#000000;stroke-width:0"
       id="rect18-1-7"
       width="3.6621933"
       height="1.6374846"
       x="36.885063"
       y="8.4501696"
       ry="0"
       rx="0" /></g><path
     class="cls-1"
     d="M55.32,4.08c.16,0,7.5-4.08,7.5-4.08l-1.9,3.2,6.08,3.98-5.6,4.7,1.41,2.32-7.5-2.53,3.2-3.87-3.2-1.96v-1.76Z"
     id="path6" /></svg>
