<?xml version="1.0" encoding="UTF-8"?>
<svg id="Layer_1" data-name="Layer 1" class="color" xmlns="http://www.w3.org/2000/svg" viewBox="0 0 83 32">
  <defs>
    <style>
      .cls-1 {
        opacity: .5;
      }
    </style></defs><g
     id="g7"
     style="display:inline"
     transform="translate(-0.33871357,-0.81596599)"><path
       style="display:inline;fill-opacity:1;stroke:#000000;stroke-width:0;stroke-dasharray:none"
       d="m 55.537576,10.726027 c 0,0 -0.156969,0.03486 -0.156969,-1.0878036 0,-1.1061385 0.156969,-1.0878041 0.156969,-1.0878041 h 3.118856 l 0.281436,-0.2644386 h 1.157724 l 0.275037,0.2584284 h 0.44774 c 0,0 0.148707,0.094951 0.148707,1.1028292 0,1.0615777 -0.148707,1.1028287 -0.148707,1.1028287 h -0.562873 l -0.259047,0.243403 h -0.984381 l -0.302221,-0.283971 z"
       id="path9-1"
       sodipodi:nodetypes="csccccccscccccc" /><rect
       style="display:inline;fill-opacity:1;stroke:#000000;stroke-width:0;stroke-dasharray:none"
       id="rect9-2"
       width="0.75592941"
       height="1.0450827"
       x="59.14283"
       y="7.2553959" /><path
       style="display:inline;fill-opacity:1;stroke:#000000;stroke-width:0;stroke-dasharray:none"
       d="M 59.164722,7.2595267 H 58.90763 c 0,0 -0.132443,-0.2683079 -0.132443,-1.1297634 C 58.775187,5.2799915 58.90763,5 58.90763,5 h 1.238715 c 0,0 0.132443,0.316085 0.132443,1.1400902 0,0.9583662 -0.132443,1.1400903 -0.132443,1.1400903 z"
       id="path10-3"
       sodipodi:nodetypes="ccsccscc" /><path
       id="path11-3"
       style="display:inline;fill-opacity:1;stroke:#000000;stroke-width:0;stroke-dasharray:none"
       d="M 53.968387,8.0229953 39.015262,8.2710422 c 0,0 -0.255859,0.2471237 -0.255859,1.3066406 0,0.9196882 0.205078,1.3046872 0.205078,1.3046872 l 15.003906,0.445312 c 0,0 0.595703,-0.318776 0.595703,-1.652343 0,-1.3452503 -0.595703,-1.6523437 -0.595703,-1.6523437 z M 50.722293,8.3374484 A 0.47916836,0.36763778 0 0 1 51.202762,8.706589 0.47916836,0.36763778 0 0 1 50.722293,9.0737765 0.47916836,0.36763778 0 0 1 50.243778,8.706589 0.47916836,0.36763778 0 0 1 50.722293,8.3374484 Z m -5.46875,0.058594 A 0.47916836,0.36763778 0 0 1 45.732059,8.765183 0.47916836,0.36763778 0 0 1 45.253543,9.1323705 0.47916836,0.36763778 0 0 1 44.775028,8.765183 0.47916836,0.36763778 0 0 1 45.253543,8.3960424 Z m -2.603515,0.041016 a 0.47916836,0.36763778 0 0 1 0.478515,0.3671875 0.47916836,0.36763778 0 0 1 -0.478515,0.3671875 0.47916836,0.36763778 0 0 1 -0.478516,-0.3671875 0.47916836,0.36763778 0 0 1 0.478516,-0.3671875 z m 5.324218,0.00586 a 0.47916836,0.36763778 0 0 1 0.478516,0.3671874 0.47916836,0.36763778 0 0 1 -0.478516,0.3691407 0.47916836,0.36763778 0 0 1 -0.480468,-0.3691407 0.47916836,0.36763778 0 0 1 0.480468,-0.3671874 z m -3.964843,0.6875 a 0.54112977,0.42133769 0 0 1 0.541015,0.421875 0.54112977,0.42133769 0 0 1 -0.541015,0.421875 0.54112977,0.42133769 0 0 1 -0.541016,-0.421875 0.54112977,0.42133769 0 0 1 0.541016,-0.421875 z m 2.591797,0.00781 A 0.54112977,0.42133769 0 0 1 47.142215,9.5581503 0.54112977,0.42133769 0 0 1 46.6012,9.9800253 0.54112977,0.42133769 0 0 1 46.060184,9.5581503 0.54112977,0.42133769 0 0 1 46.6012,9.1382284 Z m 2.742187,0.033203 a 0.54112977,0.42133769 0 0 1 0.541016,0.421875 0.54112977,0.42133769 0 0 1 -0.541016,0.4218746 0.54112977,0.42133769 0 0 1 -0.541015,-0.4218746 0.54112977,0.42133769 0 0 1 0.541015,-0.421875 z m 2.714844,0.011719 a 0.54112977,0.42133769 0 0 1 0.541015,0.421875 0.54112977,0.42133769 0 0 1 -0.541015,0.4218746 0.54112977,0.42133769 0 0 1 -0.541016,-0.4218746 0.54112977,0.42133769 0 0 1 0.541016,-0.421875 z m -9.443359,0.685548 a 0.47916836,0.36763778 0 0 1 0.478515,0.3691406 0.47916836,0.36763778 0 0 1 -0.478515,0.367187 0.47916836,0.36763778 0 0 1 -0.478516,-0.367187 0.47916836,0.36763778 0 0 1 0.478516,-0.3691406 z m 2.626953,0.099609 a 0.47916836,0.36763778 0 0 1 0.480468,0.3691406 0.47916836,0.36763778 0 0 1 -0.480468,0.367187 0.47916836,0.36763778 0 0 1 -0.478516,-0.367187 0.47916836,0.36763778 0 0 1 0.478516,-0.3691406 z m 2.755859,0.011719 a 0.47916836,0.36763778 0 0 1 0.478516,0.3691406 0.47916836,0.36763778 0 0 1 -0.478516,0.367187 0.47916836,0.36763778 0 0 1 -0.480469,-0.367187 0.47916836,0.36763778 0 0 1 0.480469,-0.3691406 z m 2.726562,0.023437 a 0.47916836,0.36763778 0 0 1 0.478516,0.369141 0.47916836,0.36763778 0 0 1 -0.478516,0.367187 0.47916836,0.36763778 0 0 1 -0.480468,-0.367187 0.47916836,0.36763778 0 0 1 0.480468,-0.369141 z" /><path
       id="path15-4"
       style="display:inline;fill-opacity:1;stroke:#000000;stroke-width:0;stroke-dasharray:none"
       d="m 16.575809,11.792794 v 1.648438 0.898437 l -4.447266,6.964844 c 0,0 -0.01517,0.0224 4.197266,0.996093 0.249286,0.05762 0.685599,0.09743 0.932751,0.03125 0.302032,-0.08088 0.40501,-0.143304 0.56139,-0.414062 0.114615,-0.198446 0.168578,-0.406454 0.132812,-0.632812 -0.01864,-0.117986 -0.109038,-0.312163 -0.06445,-0.382813 2.570944,-4.07438 -0.01602,0.01847 2.529297,-4.080078 0.07504,-0.12084 0.175546,-0.237076 0.302734,-0.300781 0.195353,-0.09785 0.426576,-0.124923 0.648438,-0.0957 0.259399,0.03416 0.437964,0.214331 0.679687,0.314454 0.193028,0.07995 0.396537,0.162109 0.605469,0.162109 h 4.167969 c 0.332898,0 0.676488,-0.09146 0.964843,-0.257813 0.162694,-0.09386 0.398438,-0.398437 0.398438,-0.398437 h 1.585938 v -2.507817 l -1.507816,-1.945312 z m 6.410156,1.683594 h 3.701172 c 0.786535,0 1.419922,0.633387 1.419922,1.419922 0,0.786534 -0.633387,1.419922 -1.419922,1.419922 h -3.701172 c -0.786534,0 -1.419922,-0.633388 -1.419922,-1.419922 0,-0.786535 0.633388,-1.419922 1.419922,-1.419922 z"
       sodipodi:nodetypes="ccccsssscssssssscccccsssssss" /><path
       style="display:inline;fill-opacity:1;stroke:#000000;stroke-width:0;stroke-dasharray:none"
       d="m 23.571159,13.316318 c 0,0 -0.113577,0.170186 -0.152478,0.264101 -0.06013,0.145164 -0.101492,0.299532 -0.122001,0.455312 -0.02518,0.19128 -0.02518,0.387511 0,0.578791 0.02836,0.215442 0.06008,0.441501 0.168725,0.629689 0.142681,0.24713 0.329705,0.531488 0.605343,0.605343 0.06584,0.01764 0.291279,0.0026 0.291279,-0.05293 0,-0.04668 -0.257496,-0.291833 -0.343564,-0.46395 -0.106574,-0.213124 -0.172612,-0.448855 -0.204399,-0.68501 -0.03292,-0.244607 -0.04393,-0.500969 0.01657,-0.740252 0.0436,-0.172459 0.243068,-0.475087 0.243068,-0.475087 z"
       id="path17-1"
       sodipodi:nodetypes="cssssssssscc" /><path
       style="display:inline;fill-opacity:1;stroke:#000000;stroke-width:0;stroke-dasharray:none"
       d="m 38.083258,15.46526 c -0.0048,0.155558 -0.0055,1.161279 -1.510244,1.168765 h -6.35704 v -3.419356 h 1.43796 c 0,0 0.530046,0.01622 0.75655,-0.155576 0.218975,-0.166089 0.201863,-0.397764 0.201863,-0.397764 v -0.962285 h 5.469474 z"
       id="path18-1"
       sodipodi:nodetypes="cccccscccc" /><path
       id="path19-3"
       style="display:inline;fill-opacity:1;stroke:#000000;stroke-width:0;stroke-dasharray:none"
       d="m 36.579715,16.718575 -4.535156,0.07422 -0.15625,7.734375 c 0,0 0.0036,0.250602 0.0371,0.30371 0.04014,0.06357 0.169922,0.05371 0.169922,0.05371 l 5.257813,-0.271485 c 0,0 0.05092,-0.0011 0.09766,-0.0498 0.0444,-0.04622 0.03516,-0.104492 0.03516,-0.104492 z m -1.28125,0.345588 c 0.149876,-0.0051 0.276188,0.111843 0.28125,0.261719 l 0.222657,6.525506 c 0.0051,0.149876 -0.111844,0.274235 -0.261719,0.279297 -0.149877,0.0051 -0.276188,-0.111843 -0.28125,-0.261719 L 35.036746,17.34346 c -0.0051,-0.149877 0.111843,-0.274235 0.261719,-0.279297 z m -1.933593,0.06055 c 0.149876,-0.0051 0.274234,0.111842 0.279296,0.261719 l 0.222657,6.635991 c 0.0051,0.149876 -0.111843,0.274235 -0.261719,0.279297 -0.149877,0.0051 -0.274235,-0.111843 -0.279297,-0.261719 L 33.103153,17.40401 c -0.0051,-0.149877 0.111842,-0.274235 0.261719,-0.279297 z"
       sodipodi:nodetypes="cccsccsccsccsccssccsccs" /><path
       style="display:inline;fill-opacity:1;stroke:#000000;stroke-width:0;stroke-dasharray:none"
       d="m 32.607059,25.153021 0.234375,4.963647 4.703125,-0.05387 -0.59375,-5.149264 z"
       id="path20-8"
       sodipodi:nodetypes="ccccc" /><path
       style="display:inline;fill-opacity:1;stroke:#000000;stroke-width:0;stroke-dasharray:none"
       d="M 12.435184,11.417794 V 9.2459193 7.0740443 h 2.027344 l 1.558554,0.010525 0.379977,-0.0051 1.594627,4.3804267 -3.006813,-0.02105 z"
       id="path21-7"
       sodipodi:nodetypes="ccccccccc" /><path
       style="display:inline;fill-opacity:1;stroke:#000000;stroke-width:0;stroke-dasharray:none"
       d="M 18.685183,11.324044 17.263769,7.5740443 h 20.460477 l 0.541492,0.5156049 v 3.1562698 l -0.426481,0.246229 z"
       id="path22-4"
       sodipodi:nodetypes="ccccccc" /><rect
       style="display:inline;fill:#ffffff;fill-opacity:1;stroke:#000000;stroke-width:0;stroke-dasharray:none"
       id="rect22-2"
       width="5.953125"
       height="1.9375"
       x="30.810184"
       y="8.5896692"
       ry="0.27068931" /><rect
       style="display:inline;fill-opacity:1;stroke:#000000;stroke-width:0;stroke-dasharray:none"
       id="rect23-7"
       width="4.7177281"
       height="1.0920666"
       x="31.48728"
       y="9.036747"
       ry="0.35674179" /><rect
       style="display:inline;fill-opacity:1;stroke:#000000;stroke-width:0;stroke-dasharray:none"
       id="rect24-7"
       width="1.0942206"
       height="2.9765625"
       x="11.2355"
       y="7.7146692" /><path
       id="path24-9"
       style="display:inline;fill-opacity:1;stroke:#000000;stroke-width:0;stroke-dasharray:none"
       d="m 19.728153,5.7595912 -1.289063,1.2871093 0.0039,0.2871094 h 5.136719 V 6.9412318 L 22.396122,5.7595912 Z m 1.324219,0.2519531 a 0.5,0.5 0 0 1 0.5,0.5 0.5,0.5 0 0 1 -0.5,0.5 0.5,0.5 0 0 1 -0.5,-0.5 0.5,0.5 0 0 1 0.5,-0.5 z" /><path
       style="display:inline;fill-opacity:1;stroke:#000000;stroke-width:0;stroke-dasharray:none"
       d="m 1.4904824,22.82359 c 0,0 0.5567773,-2.28604 0.5966214,-3.822796 0.063359,-2.443686 -0.508233,-3.778602 -0.508233,-3.778602 0,0 -0.5788708,-2.02796 -0.5788708,-2.320194 0,-0.09454 0.010573,-0.417678 0.080306,-0.538459 0.05211,-0.09026 0.1613795,-0.230063 0.2755837,-0.285768 0.3616225,-0.176387 7.5481656,-0.148045 7.5481656,-0.148045 l 6.9671097,-0.0442 v 0.972272 H 2.7500164 c 0,0 -0.6373098,-0.025 -0.8175922,0.287262 -0.1655031,0.28666 0.6107246,1.803147 0.8057585,2.850524 0.184095,0.988632 0.3319604,1.35325 0.265165,3.005204 -0.114415,2.829661 -0.5847876,3.889087 -0.5847876,3.889087 0,0 -0.1174943,0.379557 -0.6187185,0.309359 -0.349129,-0.0489 -0.3093592,-0.375648 -0.3093592,-0.375648 z"
       id="path25-3"
       sodipodi:nodetypes="cscsssccccssscscc" /></g><g
     class="cls-1"
     id="g9"
     style="display:inline"
     transform="translate(0,-0.22097087)"><path
       d="m 61.782669,7.407273 c 0.382739,-0.1905236 6.862599,-1.8099744 6.862599,-1.8099744 l -0.712073,1.4209887 9.150131,1.3654193 -9.799897,2.4371144 1.904794,0.849418 -3.426849,0.865294 -4.735282,-1.571819 2.385443,-1.1669575 -1.415244,-0.555694 2.269731,-0.666832 L 61.79157,7.407273 v 0 z"
       id="path8"
       style="stroke-width:0.840593" /><polygon
       points="61.81,13.4 66.92,15.73 63.26,16.67 "
       id="polygon8"
       transform="matrix(0.8900906,0,0,0.79384845,6.7661694,1.8503339)" /><polygon
       points="61.56,5.38 65.7,0.64 65.39,4.13 "
       id="polygon9"
       transform="matrix(0.8900906,0,0,0.79384845,6.7661694,1.8503339)" /></g></svg>
