<?xml version="1.0" encoding="UTF-8"?>
<svg id="Layer_1" data-name="Layer 1" class="color" xmlns="http://www.w3.org/2000/svg" viewBox="0 0 86 32">
  <defs>
    <style>
      .cls-1 {
        isolation: isolate;
        opacity: .5;
      }
    </style></defs><path
     class="cls-1"
     d="m 86,0 -4.4,8.37 3.6,2.7 -4.99,2.21 5.2,6.43 -7.98,-0.83 0.04,3.29 c -1.22,-1.44 -4.53,-5.13 -4.53,-5.13 l 0.03,-0.68 3.14,-1.24 -1.9,-1.81 2.78,-1.65 -4.05,-2.62 0.03,-1 z"
     id="path1" /><g
     id="g7"
     style="display:inline"
     transform="translate(-17.625,0.26516504)"><g
       id="g6"
       style="display:inline"
       transform="translate(-13.788582,2.3864853)"><path
         d="m 101.42309,4.2709648 c -0.01,-0.1453856 -0.126,-0.2616941 -0.27138,-0.2713864 l -0.6397,-0.058154 c -0.0872,0 -0.17446,0.029077 -0.24231,0.087231 l -0.552463,0.600927 c -0.581542,0.620312 -1.376317,0.9886221 -2.219553,1.037084 L 77.240627,5.996207 c -1.977244,0 -3.586178,1.6089338 -3.586178,3.5861776 0,1.9772444 1.608934,3.5861774 3.586178,3.5861774 l 20.257057,0.329541 c 0.843236,0.03877 1.647703,0.416772 2.219553,1.037084 l 0.552463,0.600927 c 0.0582,0.06785 0.14539,0.09692 0.24231,0.08723 l 0.6397,-0.05815 c 0.14538,-0.0097 0.26169,-0.126001 0.27138,-0.271387 0.24231,-3.537715 0.24231,-7.0851234 0,-10.6228392 z"
         id="path3-7-1"
         style="display:inline;stroke-width:0.969237" /><path
         d="m 96.945219,15.359038 -0.174463,1.890013 c -0.08723,0.882006 -0.794774,1.589549 -1.67678,1.638011 l -11.039612,0.649389 c -0.949852,0.06785 -1.802781,-0.620312 -1.928782,-1.570165 l -0.397387,-2.849557 15.236409,0.232617 z"
         id="path4-1-4"
         style="display:inline;stroke-width:0.969237" /><path
         d="m 77.201857,15.03919 c -2.975558,0 -5.418036,-2.442478 -5.418036,-5.4568054 0,-0.833544 0.184155,-1.6089337 0.523388,-2.3164769 -1.502317,0.048462 -2.830172,1.1436999 -2.975558,2.6363252 V 9.93131 c 0,0.823852 -0.455542,1.201854 -1.056469,1.579857 -0.891698,0.562157 -1.172777,0.591234 -2.306784,1.230931 -0.397387,0.222924 -0.678466,0.36831 -0.833544,0.445849 -2.578171,1.327855 -4.477876,3.305099 -4.477876,3.305099 -0.610619,0.630004 -1.928782,2.035398 -2.839865,4.254951 -0.416772,1.037084 -0.901391,2.268015 -0.73662,3.867257 0.06785,0.630004 0.184155,1.618626 0.911083,2.587863 0.872313,1.134007 2.04509,1.502318 2.471555,1.628318 0.339233,0.106617 0.775389,0.222925 1.337547,0.145386 0.319848,-0.03877 1.008007,-0.126001 1.521702,-0.697851 0.358618,-0.387695 0.40708,-0.843236 0.504004,-1.628318 0.106616,-0.81416 0.01938,-1.124315 0.03877,-1.764012 0.04846,-1.376317 0.513696,-2.423093 0.61062,-2.61694 0.57185,-1.240624 1.395701,-1.938475 1.919089,-2.374632 0.61062,-0.494311 1.114623,-0.90139 1.793089,-0.833544 0.36831,0.03877 0.726928,0.252002 0.97893,0.416772 0.271386,0.184156 0.426464,0.426465 0.581542,0.620312 0.678466,1.066161 1.890013,1.744627 3.256637,1.744627 2.112937,0 3.838179,-1.725242 3.838179,-3.838179 v -0.261694 c 0,-0.697851 0.57185,-1.279393 1.279393,-1.279393 h 0.717236 c 0.717235,0 1.298778,-0.581543 1.298778,-1.289086 v -0.07754 z m -4.196797,5.495575 c -1.405394,0 -2.549094,-1.134008 -2.549094,-2.539401 0,-0.24231 0.04846,-0.474927 0.106616,-0.697851 h 1.356932 c 0.03877,0.649389 0.106616,0.930467 0.504004,1.667088 l 0.862621,-0.24231 c -0.542773,-1.424778 -0.378003,-2.24863 0.126001,-3.217867 1.201854,0.193847 2.132321,1.240624 2.132321,2.49094 0,1.395701 -1.134007,2.539401 -2.539401,2.539401 z"
         id="path5-1-2"
         style="display:inline;stroke-width:0.969237" /><path
         d="M 89.007166,2.9043403 V 3.9414241 L 77.831861,4.1449639 c -0.09692,0 -0.193847,0 -0.281079,0.019385 V 3.495575 h -0.494311 c -0.843236,0 -1.686472,-0.3295406 -2.306784,-0.9789295 -1.221239,-1.2697008 -1.182469,-3.3050989 0.07754,-4.5166454 l 0.659081,0.6687737 c -0.891698,0.8529287 -0.911083,2.28739976 -0.06785,3.179098 0.436156,0.4555415 1.037083,0.6881584 1.63801,0.6881584 h 0.494311 v -0.048462 c 0,-0.5427728 0.436157,-0.9789295 0.97893,-0.9789295 h 7.278971 c 0.542773,0 0.97893,0.4361567 0.97893,0.9789295 v 0.416772 z"
         id="path6-5-3"
         sodipodi:nodetypes="cccccsccccscsssscc"
         style="display:inline;stroke-width:0.969237" /><path
         style="display:inline;stroke:#000000;stroke-width:0"
         d="m 78.928829,3.2266815 c -0.802891,0.9535966 -1.969838,0.8210001 -3.277881,0.8190209 -2.565504,0.00562 -4.777191,-2.2431551 -4.915923,-4.98052516 l 0.932807,0.16259439 c 0.09324,1.93236917 1.687137,4.04244897 4.027529,4.05864397 0.918546,2.442e-4 1.843873,0.2738279 2.416049,-0.4057402"
         id="path7-2"
         sodipodi:nodetypes="cccccc" /><path
         style="display:inline;stroke:#000000;stroke-width:0"
         d="m 34.6875,28.634015 c 0,0 -0.247915,0.04622 -0.44733,-0.06891 -0.08343,-0.04817 -0.197331,-0.303285 -0.197331,-0.303285 0,0 -0.507738,-0.792232 -1.136589,-7.159056 -0.233624,-2.36534 -0.28125,-7.125 -0.28125,-7.125 0,0 0.008,-0.319186 0.177735,-0.546875 0.214972,-0.28841 0.451172,-0.296875 0.451172,-0.296875 l 25.324218,-1.203125 2.875,2 c 0,0 -1.668359,0.138006 -4.105301,3.527003 -2.237872,3.112153 -2.116564,4.941214 -2.116564,4.941214 z"
         id="path8-2"
         sodipodi:nodetypes="cscscscccscc" /></g></g></svg>
